<svg width="30" height="30" viewBox="0 0 30 30" fill="none" xmlns="http://www.w3.org/2000/svg">
<g filter="url(#filter0_i_35_85)">
<circle cx="15" cy="15" r="15" fill="#1B1B36" fill-opacity="0.05"/>
</g>
<path d="M10.2148 21.4113C11.5967 22.4427 13.275 22.9999 14.9994 22.9999C16.7238 22.9999 18.402 22.4427 19.784 21.4113C19.9955 21.2512 20.1347 21.0136 20.171 20.7508C20.2074 20.4881 20.1378 20.2216 19.9777 20.0101C19.8176 19.7986 19.58 19.6594 19.3173 19.6231C19.0545 19.5867 18.7881 19.6563 18.5766 19.8164C17.5422 20.5847 16.2879 20.9995 14.9994 20.9995C13.7109 20.9995 12.4566 20.5847 11.4222 19.8164C11.2107 19.6563 10.9442 19.5867 10.6815 19.6231C10.4187 19.6594 10.1811 19.7986 10.021 20.0101C9.8609 20.2216 9.79137 20.4881 9.8277 20.7508C9.86403 21.0136 10.0033 21.2512 10.2148 21.4113Z" fill="#1B1B36"/>
<path d="M7.99992 15.9995C8.55216 15.9995 8.99984 15.5518 8.99984 14.9996C8.99984 14.4473 8.55216 13.9996 7.99992 13.9996C7.44768 13.9996 7 14.4473 7 14.9996C7 15.5518 7.44768 15.9995 7.99992 15.9995Z" fill="#1B1B36"/>
<path d="M21.9988 15.9995C22.551 15.9995 22.9987 15.5518 22.9987 14.9996C22.9987 14.4473 22.551 13.9996 21.9988 13.9996C21.4465 13.9996 20.9988 14.4473 20.9988 14.9996C20.9988 15.5518 21.4465 15.9995 21.9988 15.9995Z" fill="#1B1B36"/>
<path d="M14.9993 8.99984C15.5516 8.99984 15.9993 8.55216 15.9993 7.99992C15.9993 7.44768 15.5516 7 14.9993 7C14.4471 7 13.9994 7.44768 13.9994 7.99992C13.9994 8.55216 14.4471 8.99984 14.9993 8.99984Z" fill="#1B1B36"/>
<path d="M19.9989 10.9998C20.5512 10.9998 20.9989 10.5522 20.9989 9.99992C20.9989 9.44768 20.5512 9 19.9989 9C19.4467 9 18.999 9.44768 18.999 9.99992C18.999 10.5522 19.4467 10.9998 19.9989 10.9998Z" fill="#1B1B36"/>
<path d="M10.7072 9.29238C10.5198 9.10538 10.2658 9.00037 10.001 9.00037C9.73624 9.00037 9.48227 9.10538 9.29482 9.29238C9.20185 9.38525 9.1281 9.49553 9.07778 9.61691C9.02746 9.7383 9.00156 9.86842 9.00156 9.99982C9.00156 10.1312 9.02746 10.2613 9.07778 10.3827C9.1281 10.5041 9.20185 10.6144 9.29482 10.7073L12.2946 13.707C12.2746 13.747 12.2546 13.7895 12.2371 13.8295C12.0798 14.1995 11.999 14.5974 11.9996 14.9994C11.9991 15.6498 12.21 16.2828 12.6006 16.8029C12.9911 17.323 13.5401 17.7021 14.1648 17.8831C14.7896 18.064 15.4562 18.037 16.0642 17.8061C16.6723 17.5752 17.1888 17.153 17.536 16.6029C17.8832 16.0529 18.0422 15.405 17.9891 14.7568C17.936 14.1085 17.6736 13.4951 17.2416 13.0089C16.8095 12.5228 16.2311 12.1902 15.5936 12.0614C14.956 11.9326 14.2939 12.0144 13.707 12.2946L10.7072 9.29238ZM14.0769 14.6095C14.1726 14.3808 14.3499 14.1958 14.5742 14.0904C14.7986 13.985 15.0541 13.9667 15.2913 14.0391C15.5284 14.1114 15.7301 14.2693 15.8574 14.482C15.9847 14.6948 16.0284 14.9472 15.9801 15.1903C15.9318 15.4335 15.7949 15.65 15.5959 15.7979C15.397 15.9458 15.1502 16.0145 14.9034 15.9907C14.6567 15.967 14.4275 15.8524 14.2605 15.6692C14.0935 15.486 14.0004 15.2473 13.9994 14.9994C13.9989 14.8656 14.0253 14.7329 14.0769 14.6095Z" fill="#1B1B36"/>
<defs>
<filter id="filter0_i_35_85" x="0" y="0" width="30" height="34" filterUnits="userSpaceOnUse" color-interpolation-filters="sRGB">
<feFlood flood-opacity="0" result="BackgroundImageFix"/>
<feBlend mode="normal" in="SourceGraphic" in2="BackgroundImageFix" result="shape"/>
<feColorMatrix in="SourceAlpha" type="matrix" values="0 0 0 0 0 0 0 0 0 0 0 0 0 0 0 0 0 0 127 0" result="hardAlpha"/>
<feOffset dy="4"/>
<feGaussianBlur stdDeviation="5"/>
<feComposite in2="hardAlpha" operator="arithmetic" k2="-1" k3="1"/>
<feColorMatrix type="matrix" values="0 0 0 0 0 0 0 0 0 0 0 0 0 0 0 0 0 0 0.25 0"/>
<feBlend mode="normal" in2="shape" result="effect1_innerShadow_35_85"/>
</filter>
</defs>
</svg>
