<svg width="30" height="30" viewBox="0 0 30 30" fill="none" xmlns="http://www.w3.org/2000/svg">
<circle cx="15" cy="15" r="15" fill="#2A2A49"/>
<path d="M10.0993 19.8969C9.99704 19.9988 9.91809 20.1216 9.86783 20.2569C9.81758 20.3922 9.79721 20.5368 9.80814 20.6807C9.81906 20.8246 9.86101 20.9645 9.93112 21.0906C10.0012 21.2168 10.0978 21.3263 10.2142 21.4116C11.596 22.4428 13.274 23 14.9981 23C16.7222 23 18.4002 22.4428 19.7819 21.4116C19.9934 21.2515 20.1326 21.014 20.1689 20.7512C20.2053 20.4885 20.1357 20.2221 19.9756 20.0107C19.8156 19.7992 19.578 19.66 19.3153 19.6237C19.0526 19.5873 18.7862 19.6569 18.5747 19.817C17.5405 20.5851 16.2864 20.9999 14.9981 20.9999C13.7098 20.9999 12.4557 20.5851 11.4214 19.817C11.2293 19.6667 10.9887 19.5918 10.7452 19.6066C10.5017 19.6213 10.2719 19.7246 10.0993 19.8969Z" fill="#7979AC"/>
<path d="M21.9964 15.9979C22.5486 15.9979 22.9962 15.5503 22.9962 14.9982C22.9962 14.446 22.5486 13.9984 21.9964 13.9984C21.4443 13.9984 20.9966 14.446 20.9966 14.9982C20.9966 15.5503 21.4443 15.9979 21.9964 15.9979Z" fill="#7979AC"/>
<path d="M7.99976 15.9979C8.55191 15.9979 8.99952 15.5503 8.99952 14.9982C8.99952 14.446 8.55191 13.9984 7.99976 13.9984C7.44761 13.9984 7 14.446 7 14.9982C7 15.5503 7.44761 15.9979 7.99976 15.9979Z" fill="#7979AC"/>
<path d="M14.9981 8.99952C15.5503 8.99952 15.9979 8.55191 15.9979 7.99976C15.9979 7.44761 15.5503 7 14.9981 7C14.446 7 13.9984 7.44761 13.9984 7.99976C13.9984 8.55191 14.446 8.99952 14.9981 8.99952Z" fill="#7979AC"/>
<path d="M9.99927 10.9992C10.5514 10.9992 10.999 10.5515 10.999 9.99939C10.999 9.44724 10.5514 8.99963 9.99927 8.99963C9.44712 8.99963 8.99951 9.44724 8.99951 9.99939C8.99951 10.5515 9.44712 10.9992 9.99927 10.9992Z" fill="#7979AC"/>
<path d="M20.7042 9.292C20.6113 9.19904 20.5011 9.1253 20.3797 9.07499C20.2583 9.02468 20.1283 8.99878 19.9969 8.99878C19.8655 8.99878 19.7354 9.02468 19.614 9.07499C19.4926 9.1253 19.3824 9.19904 19.2895 9.292L16.2903 12.2913C15.7035 12.0111 15.0416 11.9293 14.4043 12.058C13.7669 12.1867 13.1887 12.5191 12.7566 13.005C12.3246 13.4909 12.0622 14.1041 12.0089 14.7521C11.9556 15.4001 12.1143 16.0479 12.4611 16.5978C12.808 17.1478 13.3242 17.5702 13.9319 17.8013C14.5396 18.0324 15.206 18.0598 15.8307 17.8793C16.4553 17.6988 17.0044 17.3202 17.3952 16.8006C17.786 16.2809 17.9973 15.6483 17.9973 14.9981C17.9984 14.5972 17.9185 14.2002 17.7624 13.8309C17.7449 13.7884 17.7249 13.7484 17.7049 13.7059L20.7042 10.7067C20.7972 10.6138 20.8709 10.5035 20.9212 10.3822C20.9715 10.2608 20.9974 10.1307 20.9974 9.99933C20.9974 9.86794 20.9715 9.73785 20.9212 9.61648C20.8709 9.49511 20.7972 9.38485 20.7042 9.292ZM14.9981 15.9979C14.8003 15.9979 14.607 15.9393 14.4426 15.8294C14.2782 15.7195 14.1501 15.5634 14.0744 15.3807C13.9987 15.198 13.9789 14.997 14.0175 14.8031C14.0561 14.6092 14.1513 14.431 14.2911 14.2912C14.4309 14.1514 14.6091 14.0562 14.803 14.0176C14.997 13.979 15.198 13.9988 15.3807 14.0745C15.5633 14.1501 15.7195 14.2783 15.8293 14.4427C15.9392 14.6071 15.9978 14.8004 15.9978 14.9981C15.9978 15.2633 15.8925 15.5176 15.705 15.7051C15.5175 15.8926 15.2632 15.9979 14.9981 15.9979Z" fill="#7979AC"/>
</svg>
