<svg width="12" height="19" viewBox="0 0 12 19" fill="none" xmlns="http://www.w3.org/2000/svg">
<path d="M1.00561 9.31522C0.894384 11.6753 2.47306 15.1667 2.47306 15.1667H9.81028C9.81028 15.1667 11.1599 11.6432 10.9842 9.31522C10.6956 5.48983 5.99492 1 5.99492 1C5.99492 1 1.18625 5.48255 1.00561 9.31522Z" stroke="#7979AC" strokeWidth="1.5" strokeLinecap="round" strokeLinejoin="round"/>
<path d="M5.99992 10.9993C6.92039 10.9993 7.66658 10.2532 7.66658 9.33268C7.66658 8.41221 6.92039 7.66602 5.99992 7.66602C5.07944 7.66602 4.33325 8.41221 4.33325 9.33268C4.33325 10.2532 5.07944 10.9993 5.99992 10.9993Z" stroke="#7979AC" strokeWidth="1.5" strokeLinecap="round" strokeLinejoin="round"/>
<path d="M2.69995 18.166L2.69995 15.666" stroke="#7979AC" strokeWidth="1.5" strokeLinecap="round" strokeLinejoin="round"/>
<path d="M9.6001 18.166L9.6001 15.666" stroke="#7979AC" strokeWidth="1.5" strokeLinecap="round" strokeLinejoin="round"/>
<path d="M6.30005 17.3327L6.30005 15.666" stroke="#7979AC" strokeWidth="1.5" strokeLinecap="round" strokeLinejoin="round"/>
</svg>
