<svg width="24" height="24" viewBox="0 0 24 24" fill="none" xmlns="http://www.w3.org/2000/svg">
<path d="M11.675 0H11.6941C18.141 0 23.3692 5.2282 23.3692 11.675V12.325C23.3692 18.7718 18.141 24 11.6941 24H11.675C5.2282 24 0 18.7718 0 12.325V11.675C0 5.2282 5.2282 0 11.675 0Z" fill="#262F4B"/>
<path d="M16.6786 9.03235C16.6404 9.07536 16.5926 9.10882 16.54 9.12793C16.4874 9.15183 16.4301 9.16139 16.3727 9.16139H5.54836C5.16605 9.16139 4.97011 8.68349 5.23773 8.39675L7.01551 6.50906C7.05374 6.46604 7.10153 6.43259 7.15888 6.4087C7.21145 6.3848 7.2688 6.37524 7.32614 6.37524H18.1935C18.5806 6.37524 18.7718 6.85792 18.4994 7.14466L16.6786 9.03235ZM16.6786 17.472C16.5973 17.5533 16.4874 17.6011 16.3727 17.6011H5.54836C5.16605 17.6011 4.97011 17.1327 5.23773 16.8555L7.01551 15.0108C7.05374 14.9678 7.10631 14.9344 7.15888 14.9153C7.21145 14.8914 7.2688 14.8818 7.32614 14.8818H18.1935C18.5806 14.8818 18.7718 15.3549 18.4994 15.6321L16.6786 17.472ZM16.6786 10.7576C16.5973 10.6763 16.4874 10.6285 16.3727 10.6285H5.54836C5.16605 10.6285 4.97011 11.0969 5.23773 11.374L7.01551 13.2187C7.05374 13.2617 7.10631 13.2952 7.15888 13.3143C7.21145 13.3382 7.2688 13.3478 7.32614 13.3478H18.1935C18.5806 13.3478 18.7718 12.8746 18.4994 12.5975L16.6786 10.7576Z" fill="url(#paint0_linear_84_332)"/>
<defs>
<linearGradient id="paint0_linear_84_332" x1="5.94044" y1="17.7412" x2="17.7653" y2="6.2287" gradientUnits="userSpaceOnUse">
<stop stop-color="#CF41E8"/>
<stop offset="1" stop-color="#10F2B0"/>
</linearGradient>
</defs>
</svg>
